<svg width="32" height="30" viewBox="0 0 32 30" fill="none" xmlns="http://www.w3.org/2000/svg">
<rect x="1" y="1" width="30" height="28" rx="9" stroke="#2A2045" stroke-width="2"/>
<path d="M17.0053 15.5859C18.3584 15.5847 19.6693 15.1144 20.7146 14.2552C21.7599 13.3959 22.4749 12.2008 22.7379 10.8735C23.0009 9.54613 22.7956 8.16867 22.157 6.97573C21.5183 5.78279 20.4858 4.84816 19.2354 4.33107C17.9849 3.81398 16.5939 3.7464 15.2992 4.13985C14.0046 4.5333 12.8863 5.36345 12.1351 6.48886C11.3838 7.61428 11.0459 8.96536 11.179 10.3119C11.3121 11.6585 11.908 12.9173 12.865 13.8738C13.4084 14.4179 14.0538 14.8492 14.7643 15.143C15.4748 15.4368 16.2364 15.5873 17.0053 15.5859ZM13.8049 6.53673C14.5452 5.79628 15.5194 5.33546 16.5615 5.23279C17.6035 5.13011 18.6489 5.39193 19.5196 5.97363C20.3902 6.55533 21.0322 7.42093 21.3362 8.42292C21.6401 9.42491 21.5873 10.5013 21.1866 11.4687C20.7859 12.4361 20.0621 13.2346 19.1387 13.7282C18.2152 14.2217 17.1492 14.3799 16.1222 14.1756C15.0953 13.9713 14.1709 13.4172 13.5067 12.6078C12.8425 11.7983 12.4794 10.7836 12.4795 9.73653C12.4788 9.14216 12.5955 8.55351 12.8229 8.00438C13.0504 7.45526 13.3841 6.95649 13.8049 6.53673Z" fill="#9F96B3"/>
<path d="M17.0053 16.5135C12.0482 16.5135 8.01523 20.5459 8.01523 25.5029C8.01523 25.5902 8.03241 25.6766 8.06581 25.7572C8.0992 25.8378 8.14814 25.9111 8.20984 25.9728C8.27154 26.0345 8.34479 26.0834 8.42541 26.1168C8.50602 26.1502 8.59242 26.1674 8.67968 26.1674H25.3303C25.5065 26.1674 25.6755 26.0974 25.8001 25.9728C25.9247 25.8482 25.9947 25.6792 25.9947 25.5029C25.9947 20.5459 21.9617 16.5135 17.0053 16.5135ZM9.37284 24.8385C9.71034 20.9244 13.0057 17.8424 17.0053 17.8424C21.0049 17.8424 24.2996 20.9244 24.6371 24.8385H9.37284Z" fill="#9F96B3"/>
</svg>
